<svg width="448" height="512" viewBox="0 0 448 512" fill="none" xmlns="http://www.w3.org/2000/svg">
<g clip-path="url(#clip0)">
<path d="M240 416H208C203.757 416 199.687 417.686 196.686 420.686C193.686 423.687 192 427.757 192 432V464C192 468.243 193.686 472.313 196.686 475.314C199.687 478.314 203.757 480 208 480H240C244.243 480 248.313 478.314 251.314 475.314C254.314 472.313 256 468.243 256 464V432C256 427.757 254.314 423.687 251.314 420.686C248.313 417.686 244.243 416 240 416ZM144 416H112C107.757 416 103.687 417.686 100.686 420.686C97.6857 423.687 96 427.757 96 432V464C96 468.243 97.6857 472.313 100.686 475.314C103.687 478.314 107.757 480 112 480H144C148.243 480 152.313 478.314 155.314 475.314C158.314 472.313 160 468.243 160 464V432C160 427.757 158.314 423.687 155.314 420.686C152.313 417.686 148.243 416 144 416ZM336 416H304C299.757 416 295.687 417.686 292.686 420.686C289.686 423.687 288 427.757 288 432V464C288 468.243 289.686 472.313 292.686 475.314C295.687 478.314 299.757 480 304 480H336C340.243 480 344.313 478.314 347.314 475.314C350.314 472.313 352 468.243 352 464V432C352 427.757 350.314 423.687 347.314 420.686C344.313 417.686 340.243 416 336 416ZM432 224H400C395.757 224 391.687 225.686 388.686 228.686C385.686 231.687 384 235.757 384 240V272C384 276.243 385.686 280.313 388.686 283.314C391.687 286.314 395.757 288 400 288H432C436.243 288 440.313 286.314 443.314 283.314C446.314 280.313 448 276.243 448 272V240C448 235.757 446.314 231.687 443.314 228.686C440.313 225.686 436.243 224 432 224ZM432 320H400C395.757 320 391.687 321.686 388.686 324.686C385.686 327.687 384 331.757 384 336V368C384 372.243 385.686 376.313 388.686 379.314C391.687 382.314 395.757 384 400 384H432C436.243 384 440.313 382.314 443.314 379.314C446.314 376.313 448 372.243 448 368V336C448 331.757 446.314 327.687 443.314 324.686C440.313 321.686 436.243 320 432 320ZM432 416H400C395.757 416 391.687 417.686 388.686 420.686C385.686 423.687 384 427.757 384 432V464C384 468.243 385.686 472.313 388.686 475.314C391.687 478.314 395.757 480 400 480H432C436.243 480 440.313 478.314 443.314 475.314C446.314 472.313 448 468.243 448 464V432C448 427.757 446.314 423.687 443.314 420.686C440.313 417.686 436.243 416 432 416ZM432 128H400C395.757 128 391.687 129.686 388.686 132.686C385.686 135.687 384 139.757 384 144V176C384 180.243 385.686 184.313 388.686 187.314C391.687 190.314 395.757 192 400 192H432C436.243 192 440.313 190.314 443.314 187.314C446.314 184.313 448 180.243 448 176V144C448 139.757 446.314 135.687 443.314 132.686C440.313 129.686 436.243 128 432 128ZM432 32H32C23.5131 32 15.3737 35.3714 9.37258 41.3726C3.37142 47.3737 0 55.5131 0 64L0 464C0 468.243 1.68571 472.313 4.68629 475.314C7.68687 478.314 11.7565 480 16 480H48C52.2435 480 56.3131 478.314 59.3137 475.314C62.3143 472.313 64 468.243 64 464V96H432C436.243 96 440.313 94.3143 443.314 91.3137C446.314 88.3131 448 84.2435 448 80V48C448 43.7565 446.314 39.6869 443.314 36.6863C440.313 33.6857 436.243 32 432 32V32Z" fill="#D14141"/>
</g>
<defs>
<clipPath id="clip0">
<rect width="448" height="512" fill="white"/>
</clipPath>
</defs>
</svg>
